{"title":"The Tourist.2010 R5 LINE x264 Feel-Free","uid":6128386,"size":960023449,"categoryP":"video","categoryS":"movies","magnet":"?xt=urn:btih:15aac04678518876dae02884ca929bbcb8ce5aa7&amp;dn=The+Tourist.2010+R5+LINE+x264+Feel-Free&amp;tr=udp%3A%2F%2Ftracker.openbittorrent.com%3A80&amp;tr=udp%3A%2F%2Fopen.demonii.com%3A1337&amp;tr=udp%3A%2F%2Ftracker.coppersurfer.tk%3A6969&amp;tr=udp%3A%2F%2Fexodus.desync.com%3A6969","seeders":0,"leechers":1,"uploader":".BONE.","files":13,"time":1296029625,"description":"Genre:Action | Drama | Thriller\nLanguage:English\nIMDb:http://www.imdb.com/title/tt1243957/\nSource:DVD5/Audio:T0XiC-iNK Thx.\nSubtitles:Romana\n\n\nFormat : MPEG-4\nFormat profile : Base Media\nCodec ID : isom\nFile size : 913 MiB\nDuration : 1h 39mn\nOverall bit rate : 1 285 Kbps\nMovie name : The Tourist.2010 R5 LINE x264 Feel-Free\n\n\nVideo\nFormat settings, CABAC : Yes\nFormat settings, ReFrames : 4 frames\nCodec ID : avc1\nCodec ID/Info : Advanced Video Coding\nDuration : 1h 39mn\nBit rate mode : Variable\nBit rate : 899 Kbps\nWidth : 720 pixels\nHeight : 304 pixels\nDisplay aspect ratio : 2.35:1\nFrame rate mode : Constant\nFrame rate : 25.000 fps\nColor space : YUV\nChroma subsampling : 4:2:0\nBit depth : 8 bits\nScan type : Progressive\nBits/(Pixel*Frame) : 0.164\nStream size : 636 MiB (70%)\nWriting library : x264\n\nAudio\nID : 2\nFormat : AAC\nFormat/Info : Advanced Audio Codec\nFormat version : Version 4\nFormat profile : LC\nCodec ID : 40\nDuration : 1h 39mn\nBit rate mode : Variable\nBit rate : 384 Kbps\nChannel(s) : 6 channels\nChannel positions : Front: L C R, Side: L R, LFE\nSampling rate : 48.0 KHz\nStream size : 273 MiB (30%)\n\n\n\nPlot:\nRevolves around Frank, an American tourist visiting Italy to mend a broken heart. Elise is an extraordinary woman who deliberately crosses his path\n &lt;a href=&quot;\nhttp://www.rapidhdd.com/images/34493vlcsnap-00005.png&quot; rel=&quot;nofollow&quot; target=&quot;_NEW&quot;&gt;\nhttp://www.rapidhdd.com/images/34493vlcsnap-00005.png&lt;/a&gt;\n &lt;a href=&quot;\nhttp://www.rapidhdd.com/images/277805vlcsnap-00007.png&quot; rel=&quot;nofollow&quot; target=&quot;_NEW&quot;&gt;\nhttp://www.rapidhdd.com/images/277805vlcsnap-00007.png&lt;/a&gt;\n &lt;a href=&quot;\nhttp://www.rapidhdd.com/images/832414vlcsnap-00008.png&quot; rel=&quot;nofollow&quot; target=&quot;_NEW&quot;&gt;\nhttp://www.rapidhdd.com/images/832414vlcsnap-00008.png&lt;/a&gt;\n &lt;a href=&quot;\nhttp://www.rapidhdd.com/images/254741vlcsnap-00004.png&quot; rel=&quot;nofollow&quot; target=&quot;_NEW&quot;&gt;\nhttp://www.rapidhdd.com/images/254741vlcsnap-00004.png&lt;/a&gt;\n &lt;a href=&quot;\nhttp://www.rapidhdd.com/images/665109vlcsnap-00002.png&quot; rel=&quot;nofollow&quot; target=&quot;_NEW&quot;&gt;\nhttp://www.rapidhdd.com/images/665109vlcsnap-00002.png&lt;/a&gt;\n &lt;a href=&quot;\nhttp://rapidhdd.com/images/328690vlcsnap-00001.png&quot; rel=&quot;nofollow&quot; target=&quot;_NEW&quot;&gt;\nhttp://rapidhdd.com/images/328690vlcsnap-00001.png&lt;/a&gt;","torrent":{"xt":"urn:btih:15aac04678518876dae02884ca929bbcb8ce5aa7","amp;dn":"The+Tourist.2010+R5+LINE+x264+Feel-Free","amp;tr":["udp%3A%2F%2Ftracker.openbittorrent.com%3A80","udp%3A%2F%2Fopen.demonii.com%3A1337","udp%3A%2F%2Ftracker.coppersurfer.tk%3A6969","udp%3A%2F%2Fexodus.desync.com%3A6969"],"infoHash":"15aac04678518876dae02884ca929bbcb8ce5aa7","infoHashBuffer":{"type":"Buffer","data":[21,170,192,70,120,81,136,118,218,224,40,132,202,146,155,188,184,206,90,167]},"announce":[],"urlList":[]}}